{"title":"About Schmidt (2002) DVDRip XviD AC3 peaSoup","uid":8823830,"size":734744576,"categoryP":"video","categoryS":"movies","magnet":"?xt=urn:btih:4dbc30fa01447ea9105c947cb9e4d9ce0dd56056&amp;dn=About+Schmidt+%282002%29+DVDRip+XviD+AC3+peaSoup&amp;tr=udp%3A%2F%2Ftracker.openbittorrent.com%3A80&amp;tr=udp%3A%2F%2Fopen.demonii.com%3A1337&amp;tr=udp%3A%2F%2Ftracker.coppersurfer.tk%3A6969&amp;tr=udp%3A%2F%2Fexodus.desync.com%3A6969","seeders":10,"leechers":1,"uploader":"peaSoup","files":-1,"time":1376776350,"description":"Storyline\n\nWarren Schmidt has led a safe, predictable life working in the insurance industry in Omaha, Nebr. for many years, yet now faces retirement. At the same time he is forced to take a hard look at his wife, his life and his relationship with his estranged daughter. An often hilarious series of events follow as Schmidt embarks on an unpredictable RV journey to attend his daughter's wedding in Denver.                &lt;a href=&quot; http://imageshack.us/a/img39/6230/7ajl.jpg&quot; rel=&quot;nofollow&quot; target=&quot;_NEW&quot;&gt; http://imageshack.us/a/img39/6230/7ajl.jpg&lt;/a&gt;                                          &lt;a href=&quot; http://imageshack.us/a/img842/1521/z2js.jpg&quot; rel=&quot;nofollow&quot; target=&quot;_NEW&quot;&gt; http://imageshack.us/a/img842/1521/z2js.jpg&lt;/a&gt;                                         &lt;a href=&quot; http://imageshack.us/a/img850/4553/c6bp.jpg&quot; rel=&quot;nofollow&quot; target=&quot;_NEW&quot;&gt; http://imageshack.us/a/img850/4553/c6bp.jpg&lt;/a&gt;                                         &lt;a href=&quot; http://imageshack.us/a/img13/344/frwb.jpg&quot; rel=&quot;nofollow&quot; target=&quot;_NEW&quot;&gt; http://imageshack.us/a/img13/344/frwb.jpg&lt;/a&gt;                                           &lt;a href=&quot; http://imageshack.us/a/img818/9239/nfq5.jpg&quot; rel=&quot;nofollow&quot; target=&quot;_NEW&quot;&gt; http://imageshack.us/a/img818/9239/nfq5.jpg&lt;/a&gt;                                          Format                                   : AVI\nFormat/Info                              : Audio Video Interleave\nFile size                                : 701 MiB\nDuration                                 : 2h 0mn\nOverall bit rate                         : 815 Kbps\nWriting application                      : VirtualDubMod 1.5.4.1 (build 2178/release)\nWriting library                          : VirtualDubMod build 2178/release\n\nVideo\nID                                       : 0\nFormat                                   : MPEG-4 Visual\nFormat profile                           : Advanced Simple@L5\nFormat settings, BVOP                    : 1\nFormat settings, QPel                    : No\nFormat settings, GMC                     : No warppoints\nFormat settings, Matrix                  : Custom\nCodec ID                                 : XVID\nCodec ID/Hint                            : XviD\nDuration                                 : 2h 0mn\nBit rate                                 : 584 Kbps\nWidth                                    : 624 pixels\nHeight                                   : 336 pixels\nDisplay aspect ratio                     : 1.85:1\nFrame rate                               : 25.000 fps\nColor space                              : YUV\nChroma subsampling                       : 4:2:0\nBit depth                                : 8 bits\nScan type                                : Progressive\nCompression mode                         : Lossy\nBits/(Pixel*Frame)                       : 0.111\nStream size                              : 502 MiB (72%)\nWriting library                          : XviD 1.2.1 (UTC 2008-12-04)\n\nAudio\nID                                       : 1\nFormat                                   : AC-3\nFormat/Info                              : Audio Coding 3\nMode extension                           : CM (complete main)\nFormat settings, Endianness              : Big\nCodec ID                                 : 2000\nDuration                                 : 2h 0mn\nBit rate mode                            : Constant\nBit rate                                 : 224 Kbps\nChannel(s)                               : 2 channels\nChannel positions                        : Front: L R\nSampling rate                            : 48.0 KHz\nBit depth                                : 16 bits\nCompression mode                         : Lossy\nStream size                              : 193 MiB (27%)\nAlignment                                : Split accross interleaves\nInterleave, duration                     : 96 ms (2.40 video frames)\nInterleave, preload duration             : 96 ms\nLanguage                                 : English\n\n","torrent":{"xt":"urn:btih:4dbc30fa01447ea9105c947cb9e4d9ce0dd56056","amp;dn":"About+Schmidt+%282002%29+DVDRip+XviD+AC3+peaSoup","amp;tr":["udp%3A%2F%2Ftracker.openbittorrent.com%3A80","udp%3A%2F%2Fopen.demonii.com%3A1337","udp%3A%2F%2Ftracker.coppersurfer.tk%3A6969","udp%3A%2F%2Fexodus.desync.com%3A6969"],"infoHash":"4dbc30fa01447ea9105c947cb9e4d9ce0dd56056","infoHashBuffer":{"type":"Buffer","data":[77,188,48,250,1,68,126,169,16,92,148,124,185,228,217,206,13,213,96,86]},"announce":[],"urlList":[]}}